<svg width="2096mm" height="752mm" viewBox="0 0 2096 752" xml:space="preserve" xmlns="http://www.w3.org/2000/svg"><path style="fill:#151515;fill-opacity:1;stroke:none;stroke-width:.373779" d="M343.265 102.173c-10.998.85-22.074.12-33.133 1.234-36.595 3.688-74.903 12.401-108.228 28.224-54.295 25.781-107.253 80.349-113.321 142.59-2.037 20.896 3.252 41.837 10.667 61.194 7.79 20.337 19.782 39.271 33.7 55.913 36.815 44.02 87.848 76.705 137.675 104.19 77.738 42.881 159.407 78.743 242.07 111.015 52.543 20.516 105.67 37.305 160.676 49.716 13.525 3.053 27.18 8.428 41.094 9.172 5.81.31 12.703-.022 17.676-3.459 3.335-2.307 4.344-5.534 4.555-9.38.738-13.449-12.218-19.147-23.341-22.608-12.829-3.988-26.078-6.184-39.072-9.514-31.904-8.175-64.216-16.416-95.224-27.553-62.122-22.316-123.226-46.792-183.432-73.895-61.881-27.855-122.893-58.573-179.207-96.666-50.81-34.367-100.844-89.097-89.238-155.58 3.792-21.718 16.664-41.339 30.578-57.987 21.552-25.786 48.772-40.707 79.878-52.057 37.975-13.858 78.743-19.878 119.094-15.944 17.447 1.7 36.345 4.414 52.493 11.518 9.836 4.326 18.05 14.082 28.694 16.201 9.259 1.844 18.291-3.41 23.204-11.134 9.914-15.586-5.098-29.643-18.157-36.39-17.098-8.835-35.293-10.127-53.91-13.14-14.808-2.397-30.69-6.827-45.79-5.66m148.017 61.546c-14.08 1.867-23.288 17.998-17.699 30.885 4.842 11.163 15.18 19.314 23.047 28.288 9.265 10.575 16.993 22.529 25.858 33.448 45.743 56.329 96.013 109.956 148.16 160.374 19.688 19.04 38.659 39.063 59.594 56.722 17.245 14.54 32.869 31.453 50.69 45.217 7.814 6.04 16.734 12.479 27.041 9.643 11.584-3.193 11.038-16.87 5.112-24.943-13.132-17.893-33.488-30.545-49.427-45.797-13.45-12.874-27.74-24.86-41.065-37.843-56.434-55.01-112.324-111.126-162.048-172.36-9.316-11.473-18.488-22.842-26.23-35.473-6.6-10.76-11.735-22.385-18.434-33.05-5.24-8.336-13.866-16.534-24.599-15.11m-184.526 12.155c-3.645.3-6.86 1.063-10.164 2.682-2.572 1.26-4.898 2.818-6.98 4.791-13.168 12.48-4.575 27.24 3.787 39.698 4.837 7.207 13.367 16.658 23.028 15.96 17.264-1.248 30.416-26.554 25.575-42.42-4.249-13.927-21.42-21.846-35.246-20.71m83.597 57.598c-4.486.562-8.314 2.538-11.73 5.443-2.478 2.108-4.452 4.603-6.1 7.4-6.588 11.18-1.306 23.478 7.426 31.81 5.27 5.03 11.95 8.5 16.697 14.09 7.563 8.903 15.18 22.532 29.032 20.84 14.006-1.709 23.834-15.58 19.754-29.273-3.562-11.956-14.256-19.866-22.684-28.354-5.103-5.137-9.558-11.086-15.194-15.678-4.64-3.78-11.052-7.048-17.2-6.278m-87.036 25.434c-16.41 2.573-33.623 20.772-36.817 36.85-2.521 12.691 11.004 26.23 23.512 24.573 15.366-2.038 34.15-18.356 37.808-33.317 3.351-13.708-9.847-30.404-24.503-28.106m-110.2 27.649c-4.104.515-7.76 2.432-10.78 5.21-16.343 15.032-5.504 36.051 7.909 48.474 26.675 24.71 58.056 40.641 93.043 49.607 13.501 3.457 30.139 7.494 43.902 3.5 4.17-1.205 8.17-2.815 11.183-6.066 9.098-9.83 2.724-23.333-7.833-28.468-14.732-7.168-31.744-6.536-47.666-8.088-16.401-1.599-32.588-6.004-45.722-16.314-6.29-4.937-12.004-10.583-16.058-17.532-6.616-11.34-10.428-32.528-27.979-30.323m252.537 102.67c-3.373.3-6.598.914-9.65 2.444-16.568 8.303-12.886 28.711-.047 38.361 10.46 7.864 22.73 13.426 34 20.03 16.09 9.428 31.976 19.196 48.071 28.624 39.234 22.981 78.767 46.369 119.713 66.184 37.967 18.374 77.169 34.078 116.05 50.351 25.184 10.54 50.678 19.78 76.066 29.775 11.905 4.685 26.26 11.966 39.198 7.167 9.901-3.674 12.484-18.241 6.25-26.26-4.267-5.49-11.958-8.1-18.331-10.154-35.272-11.34-70.409-21.932-104.795-35.961-18.461-7.536-36.327-16.628-54.26-25.308-48.35-23.398-95.606-48.536-142.285-75.081-25.58-14.545-52.55-27.962-75.142-47.046-9.845-8.318-20.112-24.439-34.838-23.127z"/><path style="font-style:normal;font-variant:normal;font-weight:300;font-stretch:normal;font-size:259.95px;line-height:2;font-family:'SF UI Display';-inkscape-font-specification:'SF UI Display Light';letter-spacing:22.4102px;word-spacing:0;fill:#151515;fill-opacity:1;stroke:none;stroke-width:5.17825;stroke-linejoin:round;paint-order:fill markers stroke" d="M837.717 141.67v203.684h.011v193.45h79.439c30.956 0 55.055-9.143 72.295-27.43 17.335-18.289 26.003-43.769 26.003-76.44 0-30.98-7.797-55.284-23.391-72.911-3.387-4.612-26.46-37.155-26.626-67.61V246.77c0-17.145-5.192-30.91-15.574-41.291-10.382-10.478-24.05-15.716-41.005-15.716-12.287 0-22.955 2.666-32.004 8-8.954 5.334-15.573 12.812-19.86 22.432h-.428v-78.399c0-11.696-18.742-11.578-18.86-.126zm362.49-.01v203.694h18.86v-60.007l17.43-15.86 62.008 75.867h22.289l-70.866-87.44 58.45-55.924c4.51-4.556 4.939-10.512-.728-10.512h-2.237c-9.533 0-11.908 2.316-18.362 8.469l-67.841 64.683h-.143V141.9c0-12.053-18.86-12.029-18.86-.24zm324.057 0v203.694h18.86v-89.726c0-14.573 4.334-26.384 13.002-35.432 8.667-9.05 20.002-13.574 34.004-13.574 13.144 0 23.574 3.858 31.29 11.573 7.715 7.62 11.573 18.146 11.573 31.576v95.583h19.002V246.77c0-17.145-5.19-30.908-15.573-41.29-10.382-10.478-24.051-15.717-41.006-15.717-12.287 0-22.955 2.667-32.003 8-8.954 5.335-15.574 12.812-19.86 22.433h-.428V141.66c0-11.682-18.86-11.714-18.86 0zm268.48-11.476v174.058-8.239c0 19.496-11.592 26.775-11.592 26.775h-.015v216.027h41.72V486.37l11.286-12.145 46.007 64.58h48.006l-63.437-89.726 60.579-67.58h-47.434l-54.436 63.58h-.572V322.83l.018-.057s-11.265-7.337-11.265-26.833V130.185zm-71.518 5.286c-3.524 0-6.572 1.286-9.144 3.858-2.476 2.477-3.715 5.477-3.715 9.001 0 3.43 1.239 6.43 3.715 9.001 2.572 2.477 5.62 3.715 9.144 3.715s6.525-1.238 9.001-3.715c2.477-2.571 3.715-5.572 3.715-9 0-3.525-1.238-6.525-3.715-9.002-2.476-2.572-5.477-3.858-9.001-3.858zM634.941 156.902h65.108v188.452h19.573V156.902h64.625c11.834 0 11.909-17.717-.083-17.717H634.866c-11.155 0-11.124 17.717.075 17.717zm447.743 32.861c-16.192 0-29.765 4.334-40.719 13.002-10.858 8.572-16.669 19.622-17.43 33.147h18.144c1.715-9.144 6.096-16.288 13.145-21.432 7.048-5.238 15.955-7.858 26.718-7.858 12.383 0 21.955 3.096 28.718 9.287 6.858 6.191 10.286 14.907 10.286 26.146V255.2l-47.291 3.143c-18.479 1.334-32.528 5.763-42.148 13.288-9.62 7.43-14.43 17.716-14.43 30.86 0 13.24 4.762 24.004 14.287 32.29 9.525 8.192 21.955 12.288 37.29 12.288 11.812 0 22.48-2.858 32.004-8.573 9.62-5.715 16.526-13.24 20.717-22.574h.429v29.432h18.002v-104.87c0-15.526-5.239-27.861-15.716-37.005-10.382-9.144-24.384-13.716-42.006-13.716zm330.201 0c-16.001 0-29.241 4.049-39.719 12.145-10.382 8-15.573 18.336-15.573 31.004 0 10.096 3.286 18.383 9.858 24.86 6.572 6.477 16.526 11.382 29.86 14.716l26.004 6.572c10.382 2.572 17.765 5.81 22.146 9.716 4.381 3.81 6.572 9.001 6.572 15.573 0 8.097-3.62 14.621-10.858 19.574-7.144 4.858-16.526 7.286-28.147 7.286-11.525 0-20.955-2.619-28.29-7.858-7.238-5.334-11.429-12.43-12.572-21.288-.488-13.697-22.342-11.929-19.146 0 3.413 12.737 7.002 23.956 17.86 32.433 10.954 8.382 24.622 12.573 41.005 12.573 17.336 0 31.528-4.096 42.577-12.288 11.144-8.191 16.717-18.764 16.717-31.718 0-10.954-3.24-19.478-9.716-25.574-6.477-6.191-17.431-11.24-32.862-15.145l-23.574-5.715c-9.906-2.477-17.193-5.668-21.86-9.573-4.572-3.905-6.857-8.954-6.857-15.145 0-7.715 3.38-14.001 10.144-18.86 6.857-4.857 15.477-7.286 25.86-7.286 10.763 0 19.478 2.667 26.146 8.001 6.763 5.239 9.636 13.776 11.573 21.003 4.521 16.874 21.098 11.02 18.145 0-3.432-12.81-6.287-24.051-16.574-32.433-10.287-8.382-23.193-12.573-38.719-12.573zm518.24 0c-16.192 0-29.765 4.334-40.718 13.002-10.859 8.572-16.67 19.622-17.431 33.147 2.22 9.326 15.022 9.233 18.145 0 2.98-8.813 6.096-16.288 13.144-21.432 7.049-5.238 15.955-7.858 26.718-7.858 12.383 0 21.956 3.096 28.718 9.287 6.858 6.191 10.287 14.907 10.287 26.146V255.2l-47.291 3.143c-18.479 1.334-32.528 5.763-42.149 13.288-9.62 7.43-14.43 17.716-14.43 30.86 0 13.24 4.763 24.004 14.288 32.29 9.525 8.192 21.955 12.288 37.29 12.288 11.81 0 22.479-2.858 32.004-8.573 9.62-5.715 16.525-13.24 20.717-22.574h.428v29.432c0 10.773 18.003 10.8 18.003 0v-104.87c0-15.526-5.24-27.861-15.717-37.005-10.382-9.144-24.384-13.716-42.005-13.716zm-219.329 11.44v144.151h18.86v-144.56c0-13.646-18.86-13.566-18.86.408zm-808.213 5.42c13.144 0 23.574 3.857 31.29 11.572 7.714 7.62 11.572 18.146 11.572 31.576v46.6c.567 15.33 6.69 31.015 12.966 43.287-12.276-4.669-26.348-7.022-42.244-7.022h-47.361c-3.496-.609-13.109-4.26-13.23-25.808v-51.2c0-14.573 4.335-26.384 13.002-35.432 8.668-9.05 20.003-13.574 34.005-13.574zm217.963 63.865v17.002c0 12.192-4.667 22.431-14.001 30.718-9.24 8.191-20.764 12.287-34.576 12.287-10.668 0-19.335-2.571-26.003-7.715-6.667-5.143-10.001-11.859-10.001-20.146 0-8.667 3.334-15.43 10.001-20.288 6.763-4.953 16.62-7.858 29.575-8.715zm848.442 0v17.002c0 12.192-4.667 22.431-14.001 30.718-9.24 8.191-20.765 12.287-34.576 12.287-10.668 0-19.336-2.571-26.004-7.715-6.667-5.143-10.001-11.859-10.001-20.146 0-8.667 3.334-15.43 10.001-20.288 6.763-4.953 16.622-7.858 29.576-8.715zM880.876 368.212h31.147c19.05 0 33.719 5.763 44.006 17.288 10.287 11.525 15.43 28.051 15.43 49.578 0 22.193-5.096 39.1-15.287 50.72-10.097 11.525-24.813 17.288-44.149 17.288h-31.147zm227.6 10.572c-19.621 0-35.67 4.715-48.149 14.145-12.382 9.335-18.859 21.527-19.43 36.576h38.147c1.048-5.81 4.048-10.478 9.001-14.002 5.049-3.62 11.287-5.429 18.717-5.429 8.667 0 15.43 2.048 20.288 6.144 4.858 4 7.287 9.763 7.287 17.288v10.43l-39.291 2.429c-20.193 1.238-35.575 5.857-46.148 13.858-10.573 8.001-15.86 19.098-15.86 33.29 0 13.907 5.001 25.242 15.002 34.004 10.002 8.763 22.67 13.145 38.005 13.145 10.287 0 19.812-2.333 28.575-7 8.859-4.668 15.383-11.05 19.574-19.146h.857v24.289h40.291V430.934c0-15.717-6.096-28.337-18.288-37.862-12.192-9.525-28.385-14.288-48.578-14.288zm416.767 0c-19.907 0-35.862 4.477-47.863 13.43-12.002 8.954-18.002 20.813-18.002 35.577 0 23.24 14.954 38.243 44.863 45.005l29.003 6.572c7.144 1.715 12.192 3.763 15.145 6.144 3.048 2.381 4.572 5.62 4.572 9.715 0 5.144-2.382 9.24-7.144 12.288-4.762 2.953-11.287 4.429-19.574 4.429-8.667 0-15.573-1.762-20.716-5.286-5.144-3.62-8.24-8.763-9.288-15.43 0-24.879-40.719-25.166-40.719 0 0 15.37 7.763 27.574 20.146 36.718 12.477 9.049 28.956 13.573 49.434 13.573 20.67 0 37.386-4.62 50.15-13.858 12.763-9.335 19.145-21.622 19.145-36.862 0-11.716-3.43-20.86-10.287-27.432-6.763-6.572-18.05-11.669-33.862-15.288l-29.575-6.43c-14.001-3.238-21.003-8.715-21.003-16.43 0-5.048 2.286-9.096 6.858-12.144 4.572-3.144 10.62-4.715 18.146-4.715 8 0 14.43 1.857 19.288 5.572 4.857 3.619 8 8.507 8 14.716 0 29.363 38.577 30.333 38.577 0 0-15.052-6.382-27.099-18.288-36.148-11.906-9.144-27.575-13.716-47.006-13.716zm159.878 0c-19.622 0-35.672 4.715-48.15 14.145-12.382 9.335-18.86 21.527-19.43 36.576h38.147c1.048-5.81 4.048-10.478 9.001-14.002 5.049-3.62 11.287-5.429 18.717-5.429 8.668 0 15.43 2.048 20.288 6.144 4.858 4 7.287 9.763 7.287 17.288v10.43l-39.291 2.429c-20.193 1.238-35.576 5.857-46.149 13.858-10.572 8.001-15.859 19.098-15.859 33.29 0 13.907 5 25.242 15.002 34.004 10.001 8.763 22.67 13.145 38.005 13.145 10.287 0 19.812-2.333 28.575-7 8.858-4.668 15.383-11.05 19.574-19.146h.857v24.289h40.291V430.934c0-15.717-6.096-28.337-18.288-37.862-12.192-9.525-28.384-14.288-48.577-14.288zm-395.765.429c-10.477 0-19.764 2.762-27.86 8.287-8.001 5.524-13.669 13.05-17.003 22.574h-.857V381.5h-40.29v157.306h41.72V444.22c0-8.953 2.57-16.24 7.714-21.86 5.239-5.714 11.954-8.572 20.146-8.572 8.096 0 14.43 2.43 19.002 7.287 4.572 4.763 6.858 11.334 6.858 19.716v98.013h40.29V443.65c0-8.953 2.525-16.145 7.573-21.574 5.048-5.524 11.668-8.287 19.86-8.287 8.477 0 14.954 2.477 19.431 7.43 4.572 4.857 6.858 11.906 6.858 21.145v96.44h41.72v-106.87c0-15.811-4.763-28.527-14.288-38.147-9.43-9.716-21.86-14.574-37.29-14.574-11.43 0-21.527 2.905-30.29 8.716-8.763 5.715-14.954 13.525-18.574 23.431h-.857c-2.667-10.287-7.81-18.192-15.43-23.717-7.62-5.62-17.098-8.43-28.433-8.43zm-155.019 90.297v11.573c0 8.477-3.334 15.478-10.001 21.003-6.668 5.429-14.907 8.144-24.718 8.144-7.62 0-13.716-1.667-18.288-5.001-4.476-3.429-6.715-8.048-6.715-13.859 0-5.81 2.286-10.382 6.858-13.716 4.572-3.334 11.192-5.287 19.86-5.858zm576.644 0v11.573c0 8.477-3.334 15.478-10.001 21.003-6.668 5.429-14.907 8.144-24.718 8.144-7.62 0-13.716-1.667-18.288-5.001-4.477-3.429-6.715-8.048-6.715-13.859 0-5.81 2.286-10.382 6.858-13.716 4.572-3.334 11.192-5.287 19.86-5.858z"/><path style="fill:#151515;fill-opacity:1;stroke:none;stroke-width:1.01194;stroke-linejoin:round;stroke-opacity:1;paint-order:fill markers stroke" d="M1200.207 345.354c0 12.448 3.139 21.865 3.139 39.629 0 0 40.29 3.781 40.29-3.484 0-13.524-24.569 0-24.569-36.145 0-4.47-18.86-4.596-18.86 0zM1122.404 345.354c0 31.734-11.358 29.321-44.496 38.2 0 7.245 96.931 52.279 96.931 39.82 0-42.649-34.433-25.685-34.433-78.02 0-5.624-18.002-5.42-18.002 0zM700.049 345.354c0 55.793-29.757 22.617-29.757 22.617l11.33 41.215 47.601 36.285 18.688-2.445c-27.257-27.257-28.289-28.695-28.289-97.672 0-10.05-19.573-9.634-19.573 0zM1298.505 345.354c19.934 24.358-1.573 29.046-22.727 35.579l54.975 41.47 32.246-23.556 10.914-18.99c-23.112 0-24.101-1.414-53.12-34.503-4.92-4.92-25.836-6.146-22.288 0zM1524.264 345.354c0 16.329-7.719 31.17-25.64 36.71l73.625 10.437s-29.124-20.228-29.124-47.147c0-8.82-18.86-9.108-18.86 0zM1295.934 191.478h23.431M1877.864 381.499c16.485-22.88-8.495-50.107-11.168-71.314l34.953 16.391 16.047 20.493 37.274-12.087c-19.684 15.78-9.146 24.478-29.672 46.517-12.546 12.546-53.83 11.079-47.434 0zM1632.993 345.354c0 41.062 2.388 42.346-7.067 58.724l44.265 8.386 21.34-33.513s-40.357-1.274-39.536-33.597c0-10.87-19.002-10.904-19.002 0z"/><path style="fill:#151515;fill-opacity:1;stroke:none;stroke-width:1.01194;stroke-linejoin:round;stroke-opacity:1;paint-order:fill markers stroke" d="M1711.796 345.354c0 16.177-1.512 33.597-20.266 33.597l51.306 23.28s-12.18-11.824-12.18-56.877c0-9.05-18.86-7.688-18.86 0z"/> 
 </svg>
