<?xml version="1.0" standalone="no"?>
<svg id="wave" style="transform:rotate(0deg); transition: 0.3s" viewBox="0 0 1440 390" version="1.1" xmlns="http://www.w3.org/2000/svg"><defs><linearGradient id="sw-gradient-0" x1="0" x2="0" y1="1" y2="0"><stop stop-color="rgba(0, 147, 255, 1)" offset="0%"></stop><stop stop-color="rgba(11, 255, 168, 1)" offset="100%"></stop></linearGradient></defs><path style="transform:translate(0, 0px); opacity:1" fill="url(#sw-gradient-0)" d="M0,312L24,305.5C48,299,96,286,144,266.5C192,247,240,221,288,221C336,221,384,247,432,273C480,299,528,325,576,338C624,351,672,351,720,312C768,273,816,195,864,195C912,195,960,273,1008,273C1056,273,1104,195,1152,175.5C1200,156,1248,195,1296,214.5C1344,234,1392,234,1440,234C1488,234,1536,234,1584,195C1632,156,1680,78,1728,91C1776,104,1824,208,1872,260C1920,312,1968,312,2016,286C2064,260,2112,208,2160,175.5C2208,143,2256,130,2304,130C2352,130,2400,143,2448,123.5C2496,104,2544,52,2592,52C2640,52,2688,104,2736,110.5C2784,117,2832,78,2880,58.5C2928,39,2976,39,3024,91C3072,143,3120,247,3168,240.5C3216,234,3264,117,3312,110.5C3360,104,3408,208,3432,260L3456,312L3456,390L3432,390C3408,390,3360,390,3312,390C3264,390,3216,390,3168,390C3120,390,3072,390,3024,390C2976,390,2928,390,2880,390C2832,390,2784,390,2736,390C2688,390,2640,390,2592,390C2544,390,2496,390,2448,390C2400,390,2352,390,2304,390C2256,390,2208,390,2160,390C2112,390,2064,390,2016,390C1968,390,1920,390,1872,390C1824,390,1776,390,1728,390C1680,390,1632,390,1584,390C1536,390,1488,390,1440,390C1392,390,1344,390,1296,390C1248,390,1200,390,1152,390C1104,390,1056,390,1008,390C960,390,912,390,864,390C816,390,768,390,720,390C672,390,624,390,576,390C528,390,480,390,432,390C384,390,336,390,288,390C240,390,192,390,144,390C96,390,48,390,24,390L0,390Z"></path></svg>