<svg xmlns="http://www.w3.org/2000/svg" xmlns:svgjs="http://svgjs.com/svgjs" xmlns:xlink="http://www.w3.org/1999/xlink" width="2160mm" height="2160mm" version="1.1"><svg xmlns="http://www.w3.org/2000/svg" xmlns:svg="http://www.w3.org/2000/svg" id="SvgjsSvg1003" width="2160mm" height="2160mm" version="1.1" viewBox="0 0 2160 2160" xml:space="preserve"><path id="SvgjsPath1000" style="fill:#818181;fill-opacity:1;stroke:none;stroke-width:1.58451" d="M 1125.8842 3.4101278 C 1117.7987 3.1346847 1109.7413 3.1674876 1101.7255 3.5723918 L 1101.7234 3.5703247 C 1055.021 5.9309431 1008.1656 1.5906459 961.17596 5.0637736 C 805.68488 16.562708 642.36339 49.163891 499.36073 112.45877 C 266.36624 215.5804 35.790833 440.84561 3.0525269 703.91672 C -7.9373687 792.23821 12.112746 881.57706 41.351481 964.44242 C 72.0681 1051.5046 120.74808 1133.092 177.85013 1205.1838 C 328.8966 1395.8793 541.47089 1540.1465 749.51911 1662.2412 C 1074.1063 1852.7279 1416.1483 2013.9132 1762.8071 2159.9999 L 2159.9999 2159.9999 L 2159.9999 2150.7752 C 2121.5171 2137.8557 2083.2496 2124.4216 2045.5676 2109.7441 C 1784.8377 2008.168 1528.6592 1897.5523 1276.5846 1775.9045 C 1017.4942 1650.8852 762.41351 1513.8251 528.06958 1346.045 C 316.63503 1194.6776 110.78206 957.10869 167.46626 676.68169 C 185.98561 585.07818 242.74402 503.38381 303.58922 434.40294 C 397.8247 327.56326 514.85902 267.40561 647.95838 222.81586 C 810.44759 168.37526 983.88929 147.46463 1154.4386 168.68738 C 1228.1816 177.8647 1307.9552 191.49591 1375.5863 223.4184 C 1416.7804 242.86461 1450.4882 285.13044 1495.3537 295.31479 C 1534.3792 304.17312 1573.2492 282.92439 1594.9378 250.74904 C 1638.7123 185.81964 1576.6801 124.55859 1522.1019 94.490356 C 1450.6425 55.121324 1373.6851 47.594989 1295.1359 32.725134 C 1240.4637 22.377813 1182.4841 5.3382285 1125.8842 3.4101278 z M 1730.4706 280.64954 C 1727.6972 280.64403 1724.8835 280.78692 1722.0308 281.08827 C 1662.1548 287.40953 1621.3142 354.73025 1643.5457 409.97032 C 1662.8002 457.82045 1705.6923 493.5301 1738.019 532.44554 C 1776.0856 578.30475 1807.4846 629.8322 1843.8208 677.10544 C 1944.1596 807.61603 2050.2086 934.87782 2159.9999 1058.7483 L 2159.9999 834.16045 C 2107.3506 771.63452 2055.922 708.10958 2006.1091 643.31422 C 1967.9236 593.64351 1930.3369 544.43402 1898.9554 490.03469 C 1872.204 443.69475 1851.7547 393.85 1824.5682 347.89401 C 1804.6287 314.22729 1772.0717 280.73208 1730.4706 280.64954 z M 949.84693 311.62284 C 946.09133 311.52683 942.37037 311.5784 938.70084 311.78149 C 923.22131 312.63951 909.5057 315.51045 895.32675 321.9974 C 884.28497 327.04926 874.25192 333.38921 865.20455 341.51404 C 807.99513 392.90981 842.74463 456.42779 876.77542 510.16938 C 896.45817 541.25487 931.54006 582.26609 972.55666 580.39713 C 1045.8597 577.05682 1104.4463 471.30468 1085.7239 403.52266 C 1070.3158 347.74567 1006.1809 313.06294 949.84693 311.62284 z M 1296.2764 565.10711 C 1293.0041 564.92215 1289.7257 564.97514 1286.4579 565.29624 C 1267.3846 567.17331 1250.9397 575.11594 1236.138 587.03704 C 1225.3975 595.69025 1216.7506 606.04262 1209.4528 617.70752 C 1180.2718 664.34687 1201.2661 717.05373 1237.3296 753.35092 C 1259.0962 775.26025 1287.0081 790.72027 1306.497 814.94199 C 1337.5397 853.52146 1368.2844 912.13616 1427.1749 906.53226 C 1486.7186 900.86779 1529.93 843.19182 1514.1861 784.70921 C 1500.4394 733.64305 1456.0161 698.91265 1421.258 661.9968 C 1400.2126 639.64902 1382.0076 613.93821 1358.638 593.84231 C 1341.8072 579.36883 1319.1829 566.40181 1296.2764 565.10711 z M 926.34346 662.66033 C 922.52553 662.56116 918.66021 662.75248 914.76225 663.25771 C 844.9345 672.31025 769.93667 747.48858 754.58702 815.25928 C 742.47058 868.75786 798.25542 927.66166 851.44984 922.04501 C 916.7956 915.14664 998.23889 848.11398 1015.4248 785.12675 C 1030.1892 731.02412 983.61223 664.14776 926.34346 662.66033 z M 451.46908 767.58157 C 449.25376 767.62526 446.98078 767.75979 444.64883 767.98982 C 427.201 769.71071 411.49409 777.41933 398.37827 788.85573 C 327.43029 850.7103 370.98981 941.00437 426.42565 995.15993 C 536.67869 1102.8806 667.86356 1173.9367 815.11304 1215.8777 C 871.93828 1232.0528 941.98739 1251.0334 1000.7637 1235.6636 C 1018.5707 1231.0271 1035.7052 1224.6568 1048.8352 1211.2206 C 1088.4991 1170.5935 1063.012 1112.6517 1018.8556 1089.6958 C 957.23278 1057.659 885.0703 1058.4196 817.77696 1050.0475 C 748.45322 1041.4202 680.35407 1020.9271 625.85896 975.75336 C 599.76618 954.12303 576.18574 929.5499 559.79115 899.64586 C 533.86918 852.3683 520.14442 766.22728 451.46908 767.58157 z M 1503.2328 1231.5631 C 1488.9025 1232.4578 1475.165 1234.6949 1462.0617 1240.8359 C 1390.9153 1274.151 1404.2155 1361.0497 1457.5338 1403.3908 C 1500.9705 1437.8975 1552.3418 1462.8488 1599.3572 1492.1094 C 1666.4756 1533.8772 1732.6932 1577.0619 1799.8348 1618.8325 C 1918.5762 1692.6977 2037.9977 1767.4142 2159.9999 1836.7391 L 2159.9999 1658.6538 C 2093.4467 1620.2377 2027.2448 1581.1568 1961.3728 1541.34 C 1854.6105 1476.8176 1741.8379 1416.9196 1648.2513 1333.4953 C 1607.473 1297.1389 1565.7825 1227.6656 1503.2328 1231.5631 z"/></svg><style>@media (prefers-color-scheme:light){:root{filter:contrast(1) brightness(.1)}}@media (prefers-color-scheme:dark){:root{filter:contrast(.3846153846153846) brightness(4.5)}}</style></svg>