<?xml version="1.0" encoding="UTF-8" standalone="no"?>
<!-- Created with Inkscape (http://www.inkscape.org/) -->

<svg
   width="2160mm"
   height="2160mm"
   viewBox="0 0 2160 2160"
   version="1.1"
   id="svg5"
   xml:space="preserve"
   inkscape:version="1.2.2 (b0a8486541, 2022-12-01)"
   sodipodi:docname="js-disabled-logo.svg"
   xmlns:inkscape="http://www.inkscape.org/namespaces/inkscape"
   xmlns:sodipodi="http://sodipodi.sourceforge.net/DTD/sodipodi-0.dtd"
   xmlns:xlink="http://www.w3.org/1999/xlink"
   xmlns="http://www.w3.org/2000/svg"
   xmlns:svg="http://www.w3.org/2000/svg"><sodipodi:namedview
     id="namedview7"
     pagecolor="#ffffff"
     bordercolor="#999999"
     borderopacity="1"
     inkscape:showpageshadow="0"
     inkscape:pageopacity="0"
     inkscape:pagecheckerboard="0"
     inkscape:deskcolor="#d1d1d1"
     inkscape:document-units="mm"
     showgrid="false"
     inkscape:zoom="0.036090421"
     inkscape:cx="6497.5691"
     inkscape:cy="3920.708"
     inkscape:current-layer="layer1"
     inkscape:window-width="1366"
     inkscape:window-height="716"
     inkscape:window-x="0"
     inkscape:window-y="0"
     inkscape:window-maximized="1" /><defs
     id="defs2"><linearGradient
       inkscape:collect="always"
       id="linearGradient2869"><stop
         style="stop-color:#f8dc3d;stop-opacity:1;"
         offset="0"
         id="stop2865" /><stop
         style="stop-color:#f19d00;stop-opacity:1;"
         offset="0.69047618"
         id="stop2867" /></linearGradient><linearGradient
       inkscape:collect="always"
       xlink:href="#linearGradient2869"
       id="linearGradient2871"
       x1="983.78687"
       y1="1832.1023"
       x2="1249.8182"
       y2="2045.0925"
       gradientUnits="userSpaceOnUse" /><filter
       style="color-interpolation-filters:sRGB"
       inkscape:label="Drop Shadow"
       id="filter5022"
       x="-0.48025388"
       y="-0.25547794"
       width="2.0007789"
       height="1.5323787"><feFlood
         flood-opacity="1"
         flood-color="rgb(0,0,0)"
         result="flood"
         id="feFlood5012" /><feComposite
         in="SourceGraphic"
         in2="flood"
         operator="in"
         result="composite1"
         id="feComposite5014" /><feGaussianBlur
         in="composite1"
         stdDeviation="29.8137"
         result="blur"
         id="feGaussianBlur5016" /><feOffset
         dx="6"
         dy="6"
         result="offset"
         id="feOffset5018" /><feComposite
         in="SourceGraphic"
         in2="offset"
         operator="over"
         result="composite2"
         id="feComposite5020" /></filter><filter
       style="color-interpolation-filters:sRGB"
       inkscape:label="Drop Shadow"
       id="filter6897-9"
       x="-0.08570841"
       y="-0.080922157"
       width="1.1762756"
       height="1.1664318"><feFlood
         flood-opacity="0.501961"
         flood-color="rgb(0,0,0)"
         result="flood"
         id="feFlood6887-7" /><feComposite
         in="SourceGraphic"
         in2="flood"
         operator="in"
         result="composite1"
         id="feComposite6889-3" /><feGaussianBlur
         in="composite1"
         stdDeviation="44.0994"
         result="blur"
         id="feGaussianBlur6891-6" /><feOffset
         dx="6"
         dy="6"
         result="offset"
         id="feOffset6893-1" /><feComposite
         in="SourceGraphic"
         in2="offset"
         operator="over"
         result="composite2"
         id="feComposite6895-2" /></filter><linearGradient
       inkscape:collect="always"
       xlink:href="#linearGradient2869"
       id="linearGradient6304"
       gradientUnits="userSpaceOnUse"
       x1="983.78687"
       y1="1832.1023"
       x2="1249.8182"
       y2="2045.0925" /><filter
       style="color-interpolation-filters:sRGB"
       inkscape:label="Drop Shadow"
       id="filter6897-9-2"
       x="-0.094609119"
       y="-0.085311919"
       width="1.1945816"
       height="1.1754602"><feFlood
         flood-opacity="0.501961"
         flood-color="rgb(0,0,0)"
         result="flood"
         id="feFlood6887-7-0" /><feComposite
         in="SourceGraphic"
         in2="flood"
         operator="in"
         result="composite1"
         id="feComposite6889-3-6" /><feGaussianBlur
         in="composite1"
         stdDeviation="44.0994"
         result="blur"
         id="feGaussianBlur6891-6-1" /><feOffset
         dx="6"
         dy="6"
         result="offset"
         id="feOffset6893-1-5" /><feComposite
         in="SourceGraphic"
         in2="offset"
         operator="over"
         result="composite2"
         id="feComposite6895-2-5" /></filter></defs><g
     inkscape:label="Layer 1"
     inkscape:groupmode="layer"
     id="layer1"><g
       id="g6919"
       transform="matrix(1.4967022,0,0,1.4967022,-283.03481,-478.58075)"><path
         style="fill:url(#linearGradient2871);fill-opacity:1;stroke-width:0.264583;filter:url(#filter5022)"
         d="m 1110.971,1782.5663 16.7786,18.3698 -10.2946,17.8246 22.9015,19.5537 -6.3618,14.7163 17.1819,18.5624 -17.1359,18.7003 16.2143,26.2778 -6.5038,16.3728 19.1888,16.0631 -9.2379,14.6179 7.8926,14.8784 -7.5625,17.5099 10,12.9398 -8.8586,20.3558 5.9712,33.332 h 47.8819 c 28.2174,0 50.934,-22.7165 50.934,-50.9339 v -178.2067 c 0,-28.2174 -22.7166,-50.934 -50.934,-50.934 z"
         transform="matrix(3.0298014,0.34386401,-0.34386401,3.0298014,-1837.8162,-5199.8488)"
         id="path6229"
         sodipodi:nodetypes="ccccccccccccccccssssc" /><path
         style="fill:url(#linearGradient6304);fill-opacity:1;stroke-width:0.264583;filter:url(#filter5022)"
         d="m 1030.8198,1782.5663 c -28.2174,0 -50.93392,22.7166 -50.93392,50.934 v 178.2067 c 0,28.2174 22.71652,50.9339 50.93392,50.9339 h 108.611 l 1.6024,-27.3735 -13.735,-17.5216 0.5344,-19.8471 -9.976,-24.5741 -16.6093,-13.9334 12.1745,-23.4807 -18.6306,-21.8996 9.692,-22.082 -15.8945,-18.5755 11.3792,-16.4508 -14.9624,-20.5861 6.2967,-20.9223 -12.4689,-13.5315 10.4237,-19.2964 z"
         transform="matrix(3.0440991,-0.17720011,0.17720011,3.0440991,-2858.6059,-4628.4811)"
         id="rect496"
         sodipodi:nodetypes="sssscccccccccccccccs" /><path
         id="path954-9-4"
         style="fill:#000000;fill-opacity:1;stroke:#000000;stroke-width:0;stroke-linecap:round;stroke-dasharray:none;stroke-opacity:1;paint-order:stroke markers fill;filter:url(#filter6897-9-2)"
         d="m 995.2857,384.68125 c -6.55852,3.51105 -12.55641,8.08658 -17.40016,13.7434 -3.65538,4.23972 -6.4744,9.38297 -8.23862,14.71013 -2.88947,8.72928 -3.15221,18.18881 -0.66694,27.05525 1.31493,4.7617 3.43995,9.25743 5.87069,13.53694 0.63252,1.09672 0.9676,2.35074 0.97611,3.61602 2.66917,0.92786 4.15253,3.51138 6.09924,5.37838 6.58688,6.85371 15.07475,11.98647 24.28398,14.31506 7.4543,1.94211 15.3966,1.68209 22.9792,0.17417 9.9372,-1.991 19.352,-5.97192 28.4957,-10.31034 2.0035,-0.95812 3.9847,-1.96592 5.9758,-2.95183 l -21.5378,-92.48015 -0.6142,-0.19358 c -0.7283,0.14029 -1.4517,0.30511 -2.18,0.44565 -12.6273,2.49454 -25.2857,5.16471 -37.3184,9.80432 -2.28857,0.93438 -4.53842,1.98624 -6.7246,3.15658 z m -92.61752,66.49476 c -3.82485,2.08467 -7.48741,4.46529 -10.96561,7.05786 -11.17203,8.33289 -20.61347,18.82203 -28.60484,30.16574 -11.79362,16.70795 -20.42952,35.27096 -29.32967,53.60045 -4.78129,9.96597 -9.74607,19.83593 -14.91149,29.6089 -7.10284,13.57425 -14.30441,27.25869 -19.21898,41.80088 -3.74819,11.45107 -6.3174,23.27755 -9.74982,34.83935 -4.28266,14.9337 -8.52119,29.86826 -11.01661,45.22282 -4.33857,24.54693 -7.61523,49.27527 -9.23635,74.16053 -2.02115,30.71673 -1.71885,61.6434 1.63939,92.2431 6.20833,54.95246 24.28466,108.52882 52.47129,156.13776 13.10351,22.0581 28.51742,42.8544 46.30549,61.3562 8.36879,8.6932 17.28067,16.9054 26.67811,24.4387 17.15295,13.7302 36.02882,25.4011 56.30252,33.9678 16.66489,6.9925 34.39942,11.4579 52.34169,13.5252 24.4764,2.8494 49.2688,2.2997 73.7032,-0.5747 33.9189,-4.0158 67.004,-13.8946 98.3651,-27.3411 26.3653,-11.2921 51.6314,-25.0629 75.9001,-40.3296 38.5873,-24.344 74.5321,-52.6642 108.7333,-82.79489 30.0669,-26.52438 58.7972,-54.50354 87.1021,-82.87783 l -86.9758,-31.22975 c -15.0899,14.7297 -30.3474,29.28712 -45.995,43.43521 -19.7979,17.90343 -39.9986,35.37236 -60.7762,52.13153 -15.8893,12.79173 -32.3049,24.96623 -49.5869,35.82223 -27.0318,17.057 -55.9905,31.3257 -86.6228,40.6447 -27.5278,8.3325 -56.6466,12.3936 -85.3638,9.3897 -23.6012,-2.4695 -46.78878,-9.5659 -67.43531,-21.3258 -9.4988,-5.4373 -18.29715,-12.0535 -26.30326,-19.5059 -13.91108,-12.8658 -25.71511,-27.82689 -36.45627,-43.38874 -11.14988,-16.25082 -20.69661,-33.65932 -27.72721,-52.09265 -9.21616,-24.15679 -14.45548,-49.67291 -17.22928,-75.33253 -1.58178,-14.82979 -2.4757,-29.73227 -2.74856,-44.64286 -0.57247,-33.18498 2.23439,-66.45771 8.89331,-98.98298 6.03855,-29.7234 15.22759,-58.80531 27.41073,-86.58264 7.61153,-17.57611 16.08765,-34.86073 26.65992,-50.87024 4.80485,-7.18103 10.0268,-14.14724 16.22575,-20.19201 8.82947,-8.26962 19.29355,-14.69026 27.76097,-23.32094 5.34623,-5.46177 9.98935,-11.90596 12.63937,-19.18669 1.64277,-4.55475 2.67326,-9.5399 2.79263,-14.40325 0.18755,-6.51882 -1.02295,-12.93219 -3.15695,-19.10606 -1.43304,-4.17214 -3.57844,-7.94387 -5.61421,-11.83101 -0.34029,-0.82125 -0.49969,-1.71174 -0.49403,-2.59929 -2.77499,-0.96205 -4.27143,-3.67214 -6.30851,-5.58883 -4.19087,-4.28904 -9.11378,-7.9191 -14.62726,-10.31774 -3.55798,-1.52083 -7.50367,-2.5647 -11.41126,-3.03346 -7.42446,-0.94829 -15.04645,0.19066 -22.11608,2.6241 -4.13109,1.40656 -8.11806,3.19405 -11.94291,5.27873 z m 153.86842,121.1559 c -2.1149,0.97436 -4.1935,2.05828 -6.2058,3.25653 -6.0371,3.59472 -11.4769,8.21868 -15.5014,14.00313 -2.9837,4.33834 -5.1601,9.23067 -6.3885,14.30179 -1.4343,5.75722 -1.5796,11.67611 -0.9633,17.51809 0.9758,9.2186 4.2049,18.39435 9.3547,26.14302 3.7526,5.70898 8.649,10.68699 14.4547,14.31152 4.9168,3.11662 10.4121,5.33213 16.0162,6.58278 7.8036,1.72853 15.8557,1.8828 23.7673,0.79037 5.8433,-0.81237 11.5819,-2.32245 17.1069,-4.29511 9.4793,-3.36339 18.6078,-7.9491 28.5796,-9.73397 5.3027,-0.90885 10.6376,-1.41767 15.9469,-2.26996 9.028,-1.3594 18.1413,-3.27989 26.3725,-7.41531 7.1809,-3.62975 13.5803,-9.12331 17.7676,-15.95067 4.6455,-7.4837 7.0799,-16.33245 7.4123,-25.04677 0.452,-12.37095 -3.572,-24.8956 -11.3766,-34.53283 -4.8724,-6.06977 -11.2593,-11.12032 -18.4194,-14.33306 -8.4226,-3.83004 -17.7051,-5.01457 -26.9075,-4.91924 -12.1446,0.49724 -23.9703,3.5909 -35.6515,6.84877 -7.015,1.97218 -14.1011,3.80065 -21.2329,5.21205 -11.561,2.51158 -23.3035,4.61669 -34.1318,9.52887 z M 932.38676,674.08236 c -1.63701,0.75611 -3.23996,1.58175 -4.79834,2.4833 -3.11676,1.8031 -6.05463,3.90712 -8.72986,6.35281 -8.83796,7.95229 -14.73504,18.84908 -17.12974,30.47194 -3.55781,16.90743 -1.38215,34.87353 6.22777,50.38091 3.47695,7.08912 8.11826,13.49412 14.03391,18.77535 8.70255,7.82831 19.89109,13.2081 31.62165,14.46479 9.39467,0.98484 19.03467,-1.10302 27.20451,-5.94805 8.58303,-5.09686 15.46628,-12.5609 21.42574,-20.46986 5.0913,-6.82382 9.6173,-14.06345 13.6841,-21.53992 4.9457,-9.25821 8.9364,-19.1959 9.949,-29.71587 0.5607,-5.53532 0.2037,-11.24556 -1.4259,-16.61485 -2.4049,-8.11286 -7.4644,-15.33305 -14.0327,-20.63076 -9.9923,-8.26353 -22.69169,-12.729 -35.47538,-14.15504 -4.16267,-0.49064 -8.3045,-0.64819 -12.50199,-0.60753 -8.51269,0.31996 -17.0443,1.76387 -25.0504,4.6898 -1.6941,0.62055 -3.36536,1.30687 -5.00237,2.06298 z m 123.63104,59.98053 c -2.5606,1.21232 -5.0324,2.61319 -7.3827,4.19251 -4.7006,3.15866 -8.9124,7.03101 -12.3606,11.53683 -5.5569,7.39257 -8.512,16.65711 -8.9092,25.77778 -0.243,5.86152 0.4094,11.63492 1.5153,17.39229 2.2814,11.59175 6.8365,22.6483 12.8403,32.82151 6.0651,10.24259 13.8393,19.51868 23.131,26.98395 5.2292,4.17531 10.9973,8.01768 17.4575,10.08004 7.211,2.3144 15.148,2.66517 22.6066,1.1255 7.5884,-1.56612 14.9735,-4.81821 21.2532,-9.39494 8.463,-6.17951 15.2804,-14.9395 18.1691,-25.09636 2.0717,-7.47821 2.1183,-15.38261 1.3542,-23.0044 -1.7263,-15.95822 -7.5056,-31.32389 -15.8636,-45.01267 -6.0389,-9.78853 -13.7626,-18.72206 -23.3801,-25.13564 -7.9565,-5.27424 -17.4945,-8.0015 -27.0354,-7.79857 -5.2067,0.088 -10.4984,0.94812 -15.4833,2.4704 -2.7024,0.82545 -5.3518,1.84946 -7.9123,3.06177 z m 146.6582,89.15941 c -4.7129,2.34433 -9.3721,4.79227 -13.9757,7.3413 -32.2252,17.84323 -61.681,40.6261 -87.0995,67.28078 -15.9258,16.71107 -30.7389,34.5443 -43.7602,53.62914 -5.5854,8.21213 -10.6499,16.85036 -14.3542,26.10273 -3.5984,8.86785 -5.9429,18.29804 -6.369,27.87895 -0.3374,7.497 0.631,15.2952 3.9263,22.1735 4.7907,10.1661 14.0745,18.2726 25.0385,21.0288 3.906,1.0286 7.7693,1.4733 11.8301,1.4443 4.6462,-0.057 9.3302,-0.8008 13.6796,-2.1732 6.6333,-2.0493 12.7219,-5.6133 18.0612,-10.0188 7.8094,-6.4085 14.3289,-14.2389 20.1358,-22.4669 14.4158,-20.56901 23.8888,-44.13004 38.4147,-64.62747 9.8123,-13.80303 21.9621,-26.186 36.5873,-34.87533 7.0409,-4.1452 14.5318,-7.52531 22.2825,-10.10448 7.1996,-2.35803 14.7422,-3.71283 22.3267,-3.7701 12.1938,-0.2928 24.5981,0.52975 36.5374,-1.91758 7.3141,-1.47206 14.4467,-4.34255 20.287,-9.05506 7.9449,-6.3281 12.8674,-15.92642 14.3439,-25.91697 0.88,-5.79224 0.5614,-12.05188 -0.8798,-17.78705 -3.1983,-12.97231 -11.1368,-24.97433 -22.3646,-32.4019 -6.5072,-4.34702 -14.2318,-7.1042 -21.9538,-8.37161 -5.2364,-0.87468 -10.5157,-1.16175 -15.8415,-0.98169 -9.8074,0.38735 -19.6182,2.43235 -28.9596,5.54248 -9.5957,3.18121 -18.7856,7.60923 -27.8931,12.04616 z m 277.0127,103.11705 49.4516,86.50565 -2.9913,-69.82333 z m 107.3831,187.85785 c 122.7131,214.6719 133.328,233.7089 136.5157,244.5748 9.7704,33.3049 3.923,57.9632 -18.4198,77.6866 -9.9738,8.8045 -34.1717,22.3011 -45.3379,25.2874 -27.0378,7.2313 -53.009,1.3745 -91.7617,-20.6966 -7.8053,-4.4457 -14.4758,-8.1745 -14.8218,-8.286 -0.3459,-0.1115 -17.1425,29.6331 -37.3222,66.0991 l -36.6891,66.3029 12.9053,8.1045 c 74.4576,46.7594 159.4904,51.1765 241.7265,12.5561 21.7912,-10.2314 27.2969,-13.3693 47.129,-26.8599 82.0496,-55.8071 116.1984,-125.0473 103.4834,-209.8896 l -35.7203,-14.467 -57.5574,-106.8208 -0.025,-0.029 -127.6552,-99.8984 z"
         transform="matrix(0.44632822,0.22280478,-0.22280478,0.44632822,402.22349,306.91969)" /><path
         id="path6890"
         style="fill:#000000;fill-opacity:1;stroke:#000000;stroke-width:0;stroke-linecap:round;stroke-dasharray:none;stroke-opacity:1;paint-order:stroke markers fill;filter:url(#filter6897-9)"
         d="m 1207.8322,312.88147 141.1174,26.48964 c 41.3652,-20.49707 82.3075,-41.84539 122.8607,-63.90515 28.9907,-15.71924 58.0251,-31.3418 86.9097,-47.25545 12.6039,-6.97038 24.9881,-14.32917 37.2603,-21.86656 12.6811,-7.79393 25.3214,-15.66142 38.2294,-23.07703 24.3613,-14.13772 49.0999,-27.7777 72.0028,-44.24354 8.6901,-6.33207 17.1087,-13.49645 23.0491,-22.589 5.025,-7.89558 7.8152,-17.348609 7.2434,-26.792423 -0.2522,-4.100706 -1.2477,-8.403022 -3.0303,-12.141553 -3.12,-6.67054 -8.6848,-12.337856 -15.3504,-15.518881 -6.645,-3.278375 -14.1431,-4.631121 -21.5191,-4.481407 -4.788,0.176684 -9.7388,1.221949 -14.3415,2.689831 -7.7524,2.520124 -15.1792,5.944134 -22.4474,9.612409 -17.5438,8.976339 -33.8024,20.174061 -50.3119,30.873274 -11.5137,7.49442 -23.1951,14.73425 -35.1186,21.56315 -18.4633,10.73499 -36.8101,21.66963 -55.278,32.39635 -15.9307,9.21642 -32.0078,18.17482 -48.2835,26.77223 -74.2537,40.00658 -148.9095,79.37383 -225.5254,114.69976 -12.4213,5.73822 -24.9433,11.25933 -37.4667,16.77435 z M 1867.9631,16.071259 c -1.4484,1.003898 -2.8428,2.087881 -4.1505,3.221175 -6.0848,5.31754 -11.0077,11.757313 -15.7794,18.260512 -5.3648,7.40402 -10.4611,14.995779 -15.7478,22.453947 -30.082,43.039187 -59.8436,86.380887 -93.0049,127.135467 -16.9373,20.7588 -35.1243,40.46214 -53.4041,60.04037 -22.8036,24.44609 -45.7219,48.78529 -69.0136,72.76734 -32.6911,33.72083 -66.0241,66.81963 -99.8467,99.40713 -16.2603,15.67159 -32.651,31.21266 -48.979,46.81586 -0.3858,0.3678 -0.7766,0.73024 -1.1624,1.09803 l 63.679,19.89749 -10.4614,46.64798 c 34.0358,-31.10799 67.876,-62.42541 100.9177,-94.57662 31.3949,-30.71744 61.7027,-62.61345 90.539,-95.76713 35.5573,-40.64604 69.811,-82.45054 104.34,-123.95568 29.8455,-36.39031 58.5805,-73.67504 87.9235,-110.46549 8.3067,-10.517096 17.0963,-20.862266 23.0768,-32.950795 3.458,-7.023737 5.94,-14.583275 6.7998,-22.384635 0.8288,-7.15873 0.091,-14.784076 -3.091,-21.432793 -4.0134,-8.541753 -11.121,-15.241714 -19.6594,-19.24093 -6.5115,-3.0566701 -13.6251,-4.6388474 -20.7594,-4.5464114 -6.1856,0.1387346 -12.346,1.9680524 -17.7411,4.8354444 -1.5241,0.812167 -3.0267,1.73584 -4.4751,2.739739 z m -18.1405,249.487971 c -8.9996,7.59529 -16.0962,17.10501 -22.486,26.93533 -7.2582,11.25529 -13.8837,22.89847 -20.656,34.4482 -8.5827,14.74517 -17.1884,29.47531 -26.3195,43.88735 -11.1922,17.92499 -22.3233,35.89107 -33.8585,53.59491 -14.844,22.85481 -30.2918,45.32698 -46.808,67.01182 -46.0295,61.12215 -93.6588,121.04685 -142.8375,179.66888 l 76.527,41.49022 c 12.3408,-14.7041 24.6376,-29.44468 36.7638,-44.32288 28.7682,-35.21886 57.181,-70.7247 84.3387,-107.20256 27.4932,-36.97748 53.6772,-74.93193 78.3611,-113.84192 14.8304,-23.33199 29.0856,-47.03796 43.029,-70.91539 10.0168,-16.86282 21.5406,-32.88776 29.9416,-50.67156 4.2593,-9.13106 7.7562,-18.80728 9.0499,-28.86819 0.8625,-6.89768 0.623,-13.99768 -1.7255,-20.6008 -1.6849,-4.90737 -4.7019,-9.34994 -8.7171,-12.64739 -6.0816,-5.13412 -13.923,-7.95359 -21.6692,-8.84481 -1.9111,-0.21554 -3.7557,-0.29998 -5.6823,-0.27768 -7.5384,0.25353 -14.7905,2.80814 -21.1763,6.76524 -2.1285,1.31904 -4.1604,2.79401 -6.0752,4.39123 z m 9.2237,336.11222 c -44.2806,33.03334 -74.8766,75.69488 -88.0994,123.91451 -11.9945,43.73987 -9.3679,85.12852 8.3611,127.42318 l 49.1991,8.74066 -2.7716,65.26802 c 49.8329,56.02923 118.6367,77.69468 217.7769,70.14439 12.7752,-0.97307 39.3418,-3.66393 59.0393,-5.97849 95.5812,-11.23221 125.6279,-9.81651 149.6689,7.05644 16.874,11.84234 29.6669,33.75644 31.2779,53.57374 1.1108,13.6758 -4.597,34.057 -13.3693,47.7349 -10.7281,16.7278 -22.7236,27.8418 -45.0417,41.7313 -56.0442,34.8795 -109.9282,36.6915 -174.3486,5.8605 -7.4898,-3.5843 -14.4065,-6.0627 -15.3735,-5.5076 -0.4172,0.2395 -9.7477,15.7729 -20.4907,33.8058 l 1.8563,0.7668 14.0726,126.625 c 48.1119,15.4587 98.8285,17.7914 151.8657,6.5658 28.9464,-6.1265 58.5109,-16.7082 91.2722,-32.668 11.778,-5.7375 46.3282,-27.1749 59.1257,-36.6884 26.2202,-19.4889 52.8198,-46.1667 69.589,-69.7944 25.4179,-35.8143 40.7723,-83.204 40.0172,-123.512 -0.6257,-33.3532 -8.6438,-62.34505 -26.706,-96.55868 -43.9752,-83.2999 -102.9156,-120.5001 -199.4837,-125.90255 -28.4863,-1.59395 -75.5635,1.07185 -129.9109,7.3566 -86.4571,9.99753 -113.3493,8.85459 -135.6381,-5.76799 -15.5946,-10.23123 -29.4397,-32.08907 -32.4534,-51.23293 -1.8913,-12.01126 2.165,-31.47877 8.7963,-42.2085 8.0024,-12.94908 17.1828,-21.35718 33.3996,-30.59659 26.6124,-15.15804 48.5767,-18.40651 75.7873,-11.19574 9.1772,2.43164 23.0656,7.71197 30.8639,11.73173 8.6406,4.45454 14.7288,6.63654 15.5838,5.58188 2.6841,-3.29736 66.574,-127.13333 66.3167,-128.53907 -0.5815,-3.16276 -43.148,-22.41689 -62.2282,-28.14776 -58.6346,-17.61099 -110.744,-12.01538 -175.2889,18.82255 -6.8246,3.26243 -13.4509,6.70193 -19.8676,10.31382 l -9e-4,6.2e-4 c -11.6307,6.54757 -22.5785,13.65739 -32.797,21.28046 z"
         transform="matrix(0.40185833,0.2955685,-0.2955685,0.40185833,535.3726,218.39852)" /></g></g></svg>
