            <svg width="1080mm" height="1080mm" viewBox="0 0 1080 1080" xml:space="preserve" xmlns="http://www.w3.org/2000/svg"><path style="fill:#7d7d7d;fill-opacity:1;stroke-width:13.7005;stroke-linejoin:round;paint-order:fill markers stroke" d="M649.214 58.732c-3.776-.033-7.551.093-11.316.378-21.852 1.688-43.852.237-65.823 2.45-72.703 7.326-148.813 24.642-215.02 56.08-107.87 51.22-213.085 159.628-225.141 283.284-4.047 41.514 6.46 83.122 21.192 121.58 15.477 40.405 39.297 78.019 66.948 111.081 73.144 87.456 174.534 152.39 273.528 206.997 154.443 85.193 316.701 156.44 480.932 220.557 16.646 6.5 33.339 12.743 50.056 18.861H1080v-55.35a21.377 21.377 0 0 0-2.666-1.156c-113.43-41.48-225.187-86.619-335.402-136.236C618.989 831.92 497.776 770.89 385.894 695.21 284.949 626.933 185.537 518.197 208.596 386.11c7.533-43.147 33.106-82.124 60.75-115.2 42.817-51.23 96.897-80.877 158.697-103.428 75.446-27.531 156.448-39.49 236.615-31.674 34.661 3.38 72.202 8.773 104.285 22.886 19.542 8.595 35.864 27.975 57.01 32.186 18.394 3.663 36.342-6.778 46.102-22.122 19.697-30.966-10.132-58.89-36.077-72.296-55.671-34.904-127.34-36.716-186.764-37.73zm286.71 122.344a36.265 36.265 0 0 0-3.952.315c-27.973 3.708-46.268 35.755-35.164 61.357 9.618 22.177 30.157 38.37 45.787 56.199 18.407 21.01 33.766 44.758 51.38 66.451 27.851 34.298 56.631 68.025 86.022 101.286V360.216c-3.476-4.22-6.972-8.426-10.419-12.671-18.51-22.794-36.73-45.382-52.111-70.477-13.111-21.376-23.31-44.473-36.62-65.665-9.762-15.524-25.43-30.808-44.922-30.327zm-365.337 24.248c-1.76.002-3.504.075-5.22.211-7.242.596-13.631 2.115-20.193 5.332-5.11 2.503-9.733 5.594-13.869 9.513-26.16 24.793-9.084 54.119 7.53 78.872 9.609 14.319 26.554 33.094 45.748 31.707 34.3-2.48 60.427-52.753 50.81-84.274-7.913-25.94-38.394-41.39-64.806-41.361zM736.05 319.76a28.922 28.922 0 0 0-4.591.212c-8.913 1.118-16.519 5.043-23.303 10.814-4.925 4.188-8.847 9.147-12.121 14.703-13.089 22.214-2.598 46.644 14.752 63.2 10.47 9.992 23.738 16.884 33.17 27.989 15.024 17.688 30.159 44.768 57.68 41.408 27.824-3.397 47.346-30.957 39.242-58.16-7.078-23.751-28.318-39.47-45.063-56.332-10.137-10.207-18.987-22.024-30.186-31.147-8.066-6.571-18.833-12.366-29.58-12.687zm-172.092 50.314v.001c-1.815 0-3.626.143-5.419.426-32.6 5.11-66.8 41.267-73.146 73.208-5.01 25.215 21.858 52.115 46.709 48.82 30.528-4.047 67.848-36.461 75.115-66.184 6.241-25.532-16.411-56.289-43.26-56.27zM345.825 425.14a37.93 37.93 0 0 0-6.23.291c-8.152 1.024-15.41 4.835-21.413 10.357-32.466 29.863-10.936 71.62 15.712 96.3 52.996 49.09 115.34 80.747 184.85 98.56 26.824 6.869 59.883 14.888 87.227 6.954 8.284-2.394 16.233-5.598 22.217-12.057 18.076-19.529 5.411-46.35-15.562-56.554-29.269-14.24-63.07-12.99-94.702-16.073-51.931-8.597-89.881-30.415-122.744-67.24-12.324-21.121-19.745-59.44-49.355-60.538zm500.883 204.174-.003.003c-1.793-.09-3.59-.06-5.379.092-6.702.596-13.114 1.818-19.177 4.859-32.915 16.495-25.604 57.038-.09 76.21 20.78 15.624 45.162 26.671 67.555 39.794 31.965 18.73 63.527 38.137 95.504 56.867 31.478 18.44 63.063 36.994 94.882 55.175v-82.116c-6.726-3.787-13.457-7.562-20.169-11.38-50.823-28.897-104.408-55.548-149.294-93.465-18.335-15.49-37.41-44.607-63.83-46.039z"/></svg>